<?xml version="1.0" encoding="utf-8"?>
<!-- Generator: Adobe Illustrator 21.1.0, SVG Export Plug-In . SVG Version: 6.00 Build 0)  -->
<svg version="1.1" id="_x30_" xmlns="http://www.w3.org/2000/svg" xmlns:xlink="http://www.w3.org/1999/xlink" x="0px" y="0px"
	 viewBox="0 0 48 48" style="enable-background:new 0 0 48 48;" xml:space="preserve">
<path id="_x31_" d="M31,40c0-1.3-0.7-2-2-2h-3v-3v-1.1c8-1,14-7.8,14-15.9c0-8.8-7.2-16-16-16S8,9.2,8,18c0,8.1,6,14.8,14,15.9V35h0
	l0,3h-3c-1.3,0-2,0.7-2,2H2v4h15c0,1.3,0.7,2,2,2h10c1.3,0,2-0.7,2-2h15v-4H31z M35.8,16c0.1,0.7,0.2,1.3,0.2,2s-0.1,1.3-0.2,2h-4.5
	c0.1-0.7,0.1-1.3,0.1-2s-0.1-1.3-0.1-2H35.8z M34.4,12h-3.9c-0.7-2.3-1.5-4.1-2.1-5.1C31,7.9,33,9.7,34.4,12z M30.5,24h3.9
	c-1.4,2.3-3.4,4.1-5.9,5.1C29,28.1,29.8,26.3,30.5,24z M24,6c0,0,1.5,2.6,2.5,6h-5C22.5,8.6,24,6,24,6z M12.2,20
	c-0.1-0.7-0.2-1.3-0.2-2s0.1-1.3,0.2-2h4.5c-0.1,0.7-0.1,1.3-0.1,2s0.1,1.3,0.1,2H12.2z M13.6,24h3.9c0.7,2.3,1.5,4.1,2.1,5.1
	C17,28.1,15,26.3,13.6,24z M17.5,12h-3.9C15,9.7,17,7.9,19.5,6.9C19,7.9,18.2,9.7,17.5,12z M20.5,18c0-0.7,0.1-1.3,0.1-2h6.7
	c0.1,0.7,0.1,1.3,0.1,2s-0.1,1.3-0.1,2h-6.7C20.6,19.3,20.5,18.7,20.5,18z M21.5,24h5c-1,3.4-2.5,6-2.5,6S22.5,27.4,21.5,24z"/>
</svg>
