<?xml version="1.0" encoding="utf-8"?>
<!-- Generator: Adobe Illustrator 21.1.0, SVG Export Plug-In . SVG Version: 6.00 Build 0)  -->
<svg version="1.1" id="_x30_" xmlns="http://www.w3.org/2000/svg" xmlns:xlink="http://www.w3.org/1999/xlink" x="0px" y="0px"
	 viewBox="0 0 48 48" style="enable-background:new 0 0 48 48;" xml:space="preserve">
<style type="text/css">
	.st0{fill-rule:evenodd;clip-rule:evenodd;}
</style>
<path id="_x31_" class="st0" d="M46,42h-2H5H4H2c-1.1,0-2-0.9-2-2s0.9-2,2-2h3h3c-2.2,0-4-1.8-4-4V12c0-2.2,1.8-4,4-4h32
	c2.2,0,4,1.8,4,4v22c0,2.2-1.8,4-4,4h4h2c1.1,0,2,0.9,2,2S47.1,42,46,42z M22,38h4c0.6,0,1-0.4,1-1s-0.4-1-1-1h-4c-0.6,0-1,0.4-1,1
	S21.4,38,22,38z M40,12H8v22h32V12z"/>
</svg>
