<?xml version="1.0" encoding="utf-8"?>
<!-- Generator: Adobe Illustrator 21.1.0, SVG Export Plug-In . SVG Version: 6.00 Build 0)  -->
<svg version="1.1" id="_x30_" xmlns="http://www.w3.org/2000/svg" xmlns:xlink="http://www.w3.org/1999/xlink" x="0px" y="0px"
	 viewBox="0 0 48 48" style="enable-background:new 0 0 48 48;" xml:space="preserve">
<style type="text/css">
	.st0{fill-rule:evenodd;clip-rule:evenodd;}
</style>
<path class="st0" d="M31.9,42H16.1c-1.7,0-3.1-1.4-3.1-3.1V11.1C13,9.4,14.4,8,16.1,8h15.7c1.7,0,3.1,1.4,3.1,3.1v27.8
	C35,40.6,33.6,42,31.9,42z M24,10c-0.6,0-1,0.4-1,1c0,0.6,0.4,1,1,1s1-0.4,1-1C25,10.4,24.5,10,24,10z M32,12h-5.2
	c-0.4,1.2-1.5,2-2.8,2s-2.4-0.8-2.8-2H16v26h16V12z"/>
</svg>
