<?xml version="1.0" encoding="utf-8"?>
<!-- Generator: Adobe Illustrator 21.1.0, SVG Export Plug-In . SVG Version: 6.00 Build 0)  -->
<svg version="1.1" id="_x30_" xmlns="http://www.w3.org/2000/svg" xmlns:xlink="http://www.w3.org/1999/xlink" x="0px" y="0px"
	 viewBox="0 0 48 48" style="enable-background:new 0 0 48 48;" xml:space="preserve">
<style type="text/css">
	.st0{fill-rule:evenodd;clip-rule:evenodd;}
</style>
<g id="_x32_">
	<g>
		<path class="st0" d="M48,5.8L48,4c0-1.7-1.3-3-3-3H4.8H3C1.3,1,0,2.3,0,4v22v2c0,1.7,1.3,3,3,3h16v4h-7v2h24v-2h-7v-4h16
			c1.7,0,3-1.3,3-3v-2L48,5.8z M24,30c-0.6,0-1-0.4-1-1s0.4-1,1-1s1,0.4,1,1S24.6,30,24,30z M44,26H4V5h40V26z"/>
	</g>
</g>
<path id="_x31_" class="st0" d="M47,39H1c-0.5,0-1,0.5-1,1v6c0,0.5,0.5,1,1,1h46c0.5,0,1-0.5,1-1v-6C48,39.5,47.5,39,47,39z M17,44
	H4c-0.5,0-1-0.5-1-1s0.5-1,1-1h13c0.5,0,1,0.5,1,1S17.5,44,17,44z M44,45c-1.1,0-2-0.9-2-2c0-1.1,0.9-2,2-2s2,0.9,2,2
	C46,44.1,45.1,45,44,45z"/>
</svg>
