<?xml version="1.0" encoding="utf-8"?>
<!-- Generator: Adobe Illustrator 21.1.0, SVG Export Plug-In . SVG Version: 6.00 Build 0)  -->
<svg version="1.1" id="_x30_" xmlns="http://www.w3.org/2000/svg" xmlns:xlink="http://www.w3.org/1999/xlink" x="0px" y="0px"
	 viewBox="0 0 48 48" style="enable-background:new 0 0 48 48;" xml:space="preserve">
<style type="text/css">
	.st0{fill-rule:evenodd;clip-rule:evenodd;}
</style>
<path id="_x31_" class="st0" d="M40.7,46H7.3C4.4,46,2,43.6,2,40.7V7.3C2,4.4,4.4,2,7.3,2h33.3C43.6,2,46,4.4,46,7.3v33.3
	C46,43.6,43.6,46,40.7,46z M14,41c0,0.6,0.4,1,1,1h4c0.6,0,1-0.4,1-1v-4c0-0.6-0.4-1-1-1h-4c-0.6,0-1,0.4-1,1V41z M14,33
	c0,0.6,0.4,1,1,1h4c0.6,0,1-0.4,1-1v-4c0-0.6-0.4-1-1-1h-4c-0.6,0-1,0.4-1,1V33z M14,25c0,0.6,0.4,1,1,1h4c0.6,0,1-0.4,1-1v-4
	c0-0.6-0.4-1-1-1h-4c-0.6,0-1,0.4-1,1V25z M6,41c0,0.6,0.4,1,1,1h4c0.6,0,1-0.4,1-1v-4c0-0.6-0.4-1-1-1H7c-0.6,0-1,0.4-1,1V41z
	 M6,33c0,0.6,0.4,1,1,1h4c0.6,0,1-0.4,1-1v-4c0-0.6-0.4-1-1-1H7c-0.6,0-1,0.4-1,1V33z M6,25c0,0.6,0.4,1,1,1h4c0.6,0,1-0.4,1-1v-4
	c0-0.6-0.4-1-1-1H7c-0.6,0-1,0.4-1,1V25z M28,6H6v10h22V6z M28,21c0-0.6-0.4-1-1-1h-4c-0.6,0-1,0.4-1,1v4c0,0.6,0.4,1,1,1h4
	c0.6,0,1-0.4,1-1V21z M28,29c0-0.6-0.4-1-1-1h-4c-0.6,0-1,0.4-1,1v4c0,0.6,0.4,1,1,1h4c0.6,0,1-0.4,1-1V29z M28,37c0-0.6-0.4-1-1-1
	h-4c-0.6,0-1,0.4-1,1v4c0,0.6,0.4,1,1,1h4c0.6,0,1-0.4,1-1V37z M42,7c0-0.6-0.4-1-1-1h-8c-0.6,0-1,0.4-1,1v34c0,0.6,0.4,1,1,1h8
	c0.6,0,1-0.4,1-1V7z"/>
</svg>
