<?xml version="1.0" encoding="utf-8"?>
<!-- Generator: Adobe Illustrator 21.1.0, SVG Export Plug-In . SVG Version: 6.00 Build 0)  -->
<svg version="1.1" id="_x30_" xmlns="http://www.w3.org/2000/svg" xmlns:xlink="http://www.w3.org/1999/xlink" x="0px" y="0px"
	 viewBox="0 0 48 48" style="enable-background:new 0 0 48 48;" xml:space="preserve">
<polygon points="26,13 38,13 38,0 26,0 22,0 10,0 10,13 22,13 "/>
<path d="M45,15H26h-4H3c-1.7,0-3,1.3-3,3v4v3v7v2c0,1.1,0.9,2,2,2h6v12h14h4h14V36h6c1.1,0,2-0.9,2-2v-2v-7v-3v-4
	C48,16.3,46.7,15,45,15z M36,44H26h-4H12V27h10h4h10V44z M42,23c-1.1,0-2-0.9-2-2c0-1.1,0.9-2,2-2s2,0.9,2,2C44,22.1,43.1,23,42,23z
	"/>
</svg>
