<?xml version="1.0" encoding="utf-8"?>
<!-- Generator: Adobe Illustrator 21.1.0, SVG Export Plug-In . SVG Version: 6.00 Build 0)  -->
<svg version="1.1" id="_x30_" xmlns="http://www.w3.org/2000/svg" xmlns:xlink="http://www.w3.org/1999/xlink" x="0px" y="0px"
	 viewBox="0 0 48 48" style="enable-background:new 0 0 48 48;" xml:space="preserve">
<style type="text/css">
	.st0{fill-rule:evenodd;clip-rule:evenodd;}
</style>
<path id="_x31_" class="st0" d="M37,26H26v6h3c1.3,0,2,0.7,2,2h15v4H31c0,1.3-0.7,2-2,2H19c-1.3,0-2-0.7-2-2H2v-4h15
	c0-1.3,0.7-2,2-2h3v-6H11c-5,0-9-4-9-9s4-9,9-9h26c5,0,9,4,9,9S42,26,37,26z M8,15c-1.1,0-2,0.9-2,2c0,1.1,0.9,2,2,2s2-0.9,2-2
	C10,15.9,9.1,15,8,15z M14,15c-1.1,0-2,0.9-2,2c0,1.1,0.9,2,2,2c1.1,0,2-0.9,2-2C16,15.9,15.1,15,14,15z M20,15c-1.1,0-2,0.9-2,2
	c0,1.1,0.9,2,2,2c1.1,0,2-0.9,2-2C22,15.9,21.1,15,20,15z M37,12c-2.8,0-5,2.2-5,5s2.2,5,5,5c2.8,0,5-2.2,5-5S39.8,12,37,12z M37,19
	c-1.1,0-2-0.9-2-2c0-1.1,0.9-2,2-2c1.1,0,2,0.9,2,2C39,18.1,38.1,19,37,19z"/>
</svg>
