<?xml version="1.0" encoding="utf-8"?>
<!-- Generator: Adobe Illustrator 21.1.0, SVG Export Plug-In . SVG Version: 6.00 Build 0)  -->
<svg version="1.1" id="_x30_" xmlns="http://www.w3.org/2000/svg" xmlns:xlink="http://www.w3.org/1999/xlink" x="0px" y="0px"
	 viewBox="0 0 48 48" style="enable-background:new 0 0 48 48;" xml:space="preserve">
<style type="text/css">
	.st0{fill-rule:evenodd;clip-rule:evenodd;}
</style>
<path id="_x31_" class="st0" d="M34,30H5v-2h29V30z M47,42c0,1.1-0.9,2-2,2h-2c0,1.1-0.9,2-2,2H7c-1.1,0-2-0.9-2-2H3
	c-1.1,0-2-0.9-2-2v-8c0-1.1,0.9-2,2-2h38.2L12.3,3.2l1.4-1.4c0.8-0.8,2-0.8,2.8,0l29.7,29.7c0.5,0.5,0.6,1.1,0.5,1.7
	c0.1,0.3,0.2,0.6,0.2,0.9V42z M41,36c-1.1,0-2,0.9-2,2s0.9,2,2,2s2-0.9,2-2S42.1,36,41,36z"/>
</svg>
