<?xml version="1.0" encoding="utf-8"?>
<!-- Generator: Adobe Illustrator 21.1.0, SVG Export Plug-In . SVG Version: 6.00 Build 0)  -->
<svg version="1.1" id="_x30_" xmlns="http://www.w3.org/2000/svg" xmlns:xlink="http://www.w3.org/1999/xlink" x="0px" y="0px"
	 viewBox="0 0 48 48" style="enable-background:new 0 0 48 48;" xml:space="preserve">
<style type="text/css">
	.st0{fill-rule:evenodd;clip-rule:evenodd;}
</style>
<path id="_x31_" class="st0" d="M47,47H1c-0.6,0-1-0.4-1-1v-2c0-0.6,0.4-1,1-1h46c0.6,0,1,0.4,1,1v2C48,46.6,47.6,47,47,47z
	 M45.8,41H2.2C1,41,0,40.1,0,38.9v-7.7C0,29.9,1,29,2.2,29h43.7c1.2,0,2.2,1,2.2,2.2v7.7C48,40.1,47,41,45.8,41z M6,33
	c-1.1,0-2,0.9-2,2c0,1.1,0.9,2,2,2s2-0.9,2-2C8,33.9,7.1,33,6,33z M16,33h-4v4h4V33z M45.8,27H2.2C1,27,0,26.1,0,24.9v-7.7
	C0,15.9,1,15,2.2,15h43.7c1.2,0,2.2,1,2.2,2.2v7.7C48,26.1,47,27,45.8,27z M6,19c-1.1,0-2,0.9-2,2c0,1.1,0.9,2,2,2s2-0.9,2-2
	C8,19.9,7.1,19,6,19z M16,19h-4v4h4V19z M45.8,13H2.2C1,13,0,12.1,0,10.9V3.1C0,1.9,1,1,2.2,1h43.7C47,1,48,1.9,48,3.1v7.7
	C48,12.1,47,13,45.8,13z M6,5C4.9,5,4,5.9,4,7s0.9,2,2,2s2-0.9,2-2S7.1,5,6,5z M16,5h-4v4h4V5z"/>
</svg>
