<?xml version="1.0" encoding="utf-8"?>
<!-- Generator: Adobe Illustrator 21.1.0, SVG Export Plug-In . SVG Version: 6.00 Build 0)  -->
<svg version="1.1" id="_x30_" xmlns="http://www.w3.org/2000/svg" xmlns:xlink="http://www.w3.org/1999/xlink" x="0px" y="0px"
	 viewBox="0 0 48 48" style="enable-background:new 0 0 48 48;" xml:space="preserve">
<path id="_x31_" d="M26,38h3c1.3,0,2,0.7,2,2h15v4H31c0,1.3-0.7,2-2,2H19c-1.3,0-2-0.7-2-2H2v-4h15c0-1.3,0.7-2,2-2h3v-6l-7.7,0
	C13,32,12,31,12,29.7V4.3C12,3,13,2,14.3,2h19.3C34.9,2,36,3,36,4.3v25.4c0,1.3-1.1,2.3-2.4,2.3L26,32V38 M25,10h2V6h-2V10 M17,6v4
	h4V6H17 M17,14v4h4v-4H17 M17,22v4h4v-4H17z"/>
</svg>
