<?xml version="1.0" encoding="utf-8"?>
<!-- Generator: Adobe Illustrator 21.1.0, SVG Export Plug-In . SVG Version: 6.00 Build 0)  -->
<svg version="1.1" id="_x30_" xmlns="http://www.w3.org/2000/svg" xmlns:xlink="http://www.w3.org/1999/xlink" x="0px" y="0px"
	 viewBox="0 0 48 48" style="enable-background:new 0 0 48 48;" xml:space="preserve">
<style type="text/css">
	.st0{fill-rule:evenodd;clip-rule:evenodd;}
</style>
<g id="_x31_">
	<path class="st0" d="M39,26.2V9.7c0.6-0.3,1-1,1-1.7V4c0-1.1-0.9-2-2-2h-2c-1.1,0-2,0.9-2,2v4c0,0.7,0.4,1.4,1,1.7V26H11
		c-5,0-9,4-9,9s4,9,9,9h11h4h11c5,0,9-4,9-9C46,30.7,43,27.1,39,26.2z M8,37c-1.1,0-2-0.9-2-2s0.9-2,2-2s2,0.9,2,2S9.1,37,8,37z
		 M14,37c-1.1,0-2-0.9-2-2s0.9-2,2-2s2,0.9,2,2S15.1,37,14,37z M20,37c-1.1,0-2-0.9-2-2s0.9-2,2-2c1.1,0,2,0.9,2,2S21.1,37,20,37z
		 M37,40c-2.8,0-5-2.2-5-5s2.2-5,5-5c2.8,0,5,2.2,5,5S39.8,40,37,40z"/>
	<circle class="st0" cx="37" cy="35" r="2"/>
</g>
</svg>
